<svg width="1016" height="184" viewBox="0 0 1016 184" fill="none" xmlns="http://www.w3.org/2000/svg"><path d="M0 0h1016v184H0z"/><path d="M908 0H108v184h800z"/><path d="M732 0H508v160h224z"/><mask id="a" maskUnits="userSpaceOnUse" x="508" y="0" width="224" height="160"><path fill="#000" fill-opacity="0" transform="matrix(-1 0 0 1 732 0)" d="M0 0h224v160H0z"/><path d="M732 0H540l-32 76.966 33.175 82.704L732 160V0z" fill="#fff"/></mask><g mask="url(#a)" fill-rule="evenodd" clip-rule="evenodd" fill="#7AC1FC"><path d="M537.367 10.332h-4.051l194.431 152.38h4.05l-194.43-152.38zm-32.405 0h-4.05l194.43 152.38h4.051L504.962 10.332zm-32.405 0h-4.051l194.431 152.38h4.05l-194.43-152.38zm-32.405 0h-4.051l194.43 152.38h4.051l-194.43-152.38zm-32.405 0h-4.051l194.431 152.38h4.05l-194.43-152.38zm-32.405 0h-4.051l194.43 152.38h4.051l-194.43-152.38z"/></g><path d="M284 0h224v160H284z"/><mask id="b" maskUnits="userSpaceOnUse" x="284" y="0" width="224" height="160"><path fill="#000" fill-opacity="0" transform="translate(284)" d="M0 0h224v160H0z"/><path d="M284 0h192l32 76.966-33.175 82.704L284 160V0z" fill="#fff"/></mask><g mask="url(#b)" fill-rule="evenodd" clip-rule="evenodd" fill="#7AC1FC"><path d="M478.633 10.332h4.051l-194.431 152.38h-4.05l194.43-152.38zm32.405 0h4.05l-194.43 152.38h-4.051l194.431-152.38zm32.405 0h4.051l-194.431 152.38h-4.05l194.43-152.38zm32.405 0h4.051l-194.43 152.38h-4.051l194.43-152.38zm32.405 0h4.051l-194.431 152.38h-4.05l194.43-152.38zm32.405 0h4.051l-194.43 152.38h-4.051l194.43-152.38z"/></g><path d="M492 23h32v8h-32v-8z" fill="#3C4ACE"/><path fill-rule="evenodd" clip-rule="evenodd" d="M485.27 0h-7.409a4 4 0 0 0-3.725 5.458L544 184h16L488.995 2.542A4 4 0 0 0 485.27 0z" fill="#3C4ACE"/><path d="M112 160h792a4 4 0 0 1 0 8H112a4 4 0 0 1 0-8z" fill="#6796F4"/><path fill-rule="evenodd" clip-rule="evenodd" d="M538.14 0h-7.41a4 4 0 0 0-3.725 2.542L456 184h16L541.865 5.458A4 4 0 0 0 538.14 0z" fill="#5063F0"/><path d="M732 20h193.5v164H732z"/><path d="M732 20h193.5v164H732z"/><path fill-rule="evenodd" clip-rule="evenodd" d="M925.5 36v148h-188a4 4 0 0 1-4-4V28a8 8 0 0 1 8-8h21.397c1.654 0 3.266.512 4.617 1.466C781.228 31.156 796.556 36 813.5 36c26.667 0 37.333-16 64-16 17.778 0 33.778 5.333 48 16z" fill="#72CCAE"/><path fill-rule="evenodd" clip-rule="evenodd" d="M769.419 93.752C782.252 101.917 796.445 106 812 106c26.667 0 37.333-16 64-16 17.778 0 34.278 5.333 49.5 16v4c-15.222-10.667-31.722-16-49.5-16-26.667 0-37.333 16-64 16-15.555 0-29.748-4.083-42.581-12.248A23.998 23.998 0 0 0 756.535 94H732v-4h24.535c4.564 0 9.034 1.301 12.884 3.752zm0-36C782.252 65.917 796.445 70 812 70c26.667 0 37.333-16 64-16 17.778 0 34.278 5.333 49.5 16v4c-15.222-10.667-31.722-16-49.5-16-26.667 0-37.333 16-64 16-15.555 0-29.748-4.083-42.581-12.248A23.998 23.998 0 0 0 756.535 58H732v-4h24.535c4.564 0 9.034 1.301 12.884 3.752z" fill="#98EDCC"/><path fill-rule="evenodd" clip-rule="evenodd" d="M769.419 53.752C782.252 61.917 796.445 66 812 66c26.667 0 37.333-16 64-16 17.778 0 34.278 5.333 49.5 16v4c-15.222-10.667-31.722-16-49.5-16-26.667 0-37.333 16-64 16-15.555 0-29.748-4.083-42.581-12.248A23.998 23.998 0 0 0 756.535 54H732v-4h24.535c4.564 0 9.034 1.301 12.884 3.752zm0 36C782.252 97.917 796.445 102 812 102c26.667 0 37.333-16 64-16 17.778 0 34.278 5.333 49.5 16v4c-15.222-10.667-31.722-16-49.5-16-26.667 0-37.333 16-64 16-15.555 0-29.748-4.083-42.581-12.248A23.998 23.998 0 0 0 756.535 90H732v-4h24.535c4.564 0 9.034 1.301 12.884 3.752z" fill="#3AB9A0"/><path fill-rule="evenodd" clip-rule="evenodd" d="M736 20h24a4 4 0 0 1 4 4v160h-32V24a4 4 0 0 1 4-4z" fill="#55A595"/><path d="M754 28h-12a2 2 0 1 0 0 4h12a2 2 0 1 0 0-4zm0 12h-12a2 2 0 1 0 0 4h12a2 2 0 1 0 0-4zm0 12h-12a2 2 0 1 0 0 4h12a2 2 0 1 0 0-4zm0 12h-12a2 2 0 1 0 0 4h12a2 2 0 1 0 0-4zm0 12h-12a2 2 0 1 0 0 4h12a2 2 0 1 0 0-4zm0 12h-12a2 2 0 1 0 0 4h12a2 2 0 1 0 0-4zm0 12h-12a2 2 0 1 0 0 4h12a2 2 0 1 0 0-4zm0 12h-12a2 2 0 1 0 0 4h12a2 2 0 1 0 0-4zm0 12h-12a2 2 0 1 0 0 4h12a2 2 0 1 0 0-4zm0 12h-12a2 2 0 1 0 0 4h12a2 2 0 1 0 0-4zm0 12h-12a2 2 0 1 0 0 4h12a2 2 0 1 0 0-4z" fill="#417F75"/><path d="M784 80h88v104h-88z"/><path fill-rule="evenodd" clip-rule="evenodd" d="M788 80h80a4 4 0 0 1 4 4v100h-88V84a4 4 0 0 1 4-4z" fill="#5063F0"/><path fill-rule="evenodd" clip-rule="evenodd" d="M844 80h24a4 4 0 0 1 4 4v100h-32V84a4 4 0 0 1 4-4z" fill="#6796F4"/><path d="M806 112h-12a2 2 0 0 0-2 2v4a2 2 0 0 0 2 2h12a2 2 0 0 0 2-2v-4a2 2 0 0 0-2-2zm24 0h-12a2 2 0 0 0-2 2v4a2 2 0 0 0 2 2h12a2 2 0 0 0 2-2v-4a2 2 0 0 0-2-2zm-24-16h-12a2 2 0 0 0-2 2v4a2 2 0 0 0 2 2h12a2 2 0 0 0 2-2v-4a2 2 0 0 0-2-2zm24 0h-12a2 2 0 0 0-2 2v4a2 2 0 0 0 2 2h12a2 2 0 0 0 2-2v-4a2 2 0 0 0-2-2z" fill="#3C4ACE"/><path d="M854 96h-4a2 2 0 0 0-2 2v4a2 2 0 0 0 2 2h4a2 2 0 0 0 2-2v-4a2 2 0 0 0-2-2zm0 32h-4a2 2 0 0 0-2 2v4a2 2 0 0 0 2 2h4a2 2 0 0 0 2-2v-4a2 2 0 0 0-2-2zm0-16h-4a2 2 0 0 0-2 2v4a2 2 0 0 0 2 2h4a2 2 0 0 0 2-2v-4a2 2 0 0 0-2-2zm0 32h-4a2 2 0 0 0-2 2v4a2 2 0 0 0 2 2h4a2 2 0 0 0 2-2v-4a2 2 0 0 0-2-2z" fill="#7AC1FC"/><path d="M806 128h-12a2 2 0 0 0-2 2v4a2 2 0 0 0 2 2h12a2 2 0 0 0 2-2v-4a2 2 0 0 0-2-2zm24 0h-12a2 2 0 0 0-2 2v4a2 2 0 0 0 2 2h12a2 2 0 0 0 2-2v-4a2 2 0 0 0-2-2zm-24 16h-12a2 2 0 0 0-2 2v4a2 2 0 0 0 2 2h12a2 2 0 0 0 2-2v-4a2 2 0 0 0-2-2zm24 0h-12a2 2 0 0 0-2 2v4a2 2 0 0 0 2 2h12a2 2 0 0 0 2-2v-4a2 2 0 0 0-2-2z" fill="#3C4ACE"/><path d="M852 112h120v72H852z"/><path fill-rule="evenodd" clip-rule="evenodd" d="M856 112h112a4 4 0 0 1 4 4v68H852v-68a4 4 0 0 1 4-4z" fill="#EDA4E7"/><path fill-rule="evenodd" clip-rule="evenodd" d="M856 112h56a4 4 0 0 1 4 4v68h-64v-68a4 4 0 0 1 4-4z" fill="#C66DC4"/><path d="M906 136h-20a2 2 0 0 0-2 2v12a2 2 0 0 0 2 2h20a2 2 0 0 0 2-2v-12a2 2 0 0 0-2-2zm-28 32h-16a2 2 0 0 0-2 2v12a2 2 0 0 0 2 2h16a2 2 0 0 0 2-2v-12a2 2 0 0 0-2-2z" fill="#AD4EAD"/><path d="M930 136h-4a2 2 0 0 0-2 2v4a2 2 0 0 0 2 2h4a2 2 0 0 0 2-2v-4a2 2 0 0 0-2-2zm0 16h-4a2 2 0 0 0-2 2v4a2 2 0 0 0 2 2h4a2 2 0 0 0 2-2v-4a2 2 0 0 0-2-2zm16-16h-4a2 2 0 0 0-2 2v4a2 2 0 0 0 2 2h4a2 2 0 0 0 2-2v-4a2 2 0 0 0-2-2zm0 16h-4a2 2 0 0 0-2 2v4a2 2 0 0 0 2 2h4a2 2 0 0 0 2-2v-4a2 2 0 0 0-2-2zm16-16h-4a2 2 0 0 0-2 2v4a2 2 0 0 0 2 2h4a2 2 0 0 0 2-2v-4a2 2 0 0 0-2-2zm0 16h-4a2 2 0 0 0-2 2v4a2 2 0 0 0 2 2h4a2 2 0 0 0 2-2v-4a2 2 0 0 0-2-2z" fill="#FFCAFE"/><path d="M884 96h100v88H884z"/><path d="M936 96h-4v88h4V96z" fill="#3C4ACE"/><path fill-rule="evenodd" clip-rule="evenodd" d="M936 96h44a4 4 0 0 1 4 4v24a4 4 0 0 1-4 4h-44V96zm-48 0h44v32h-44a4 4 0 0 1-4-4v-24a4 4 0 0 1 4-4z" fill="#5063F0"/><path d="M974 104h-28a2 2 0 0 0-2 2v4a2 2 0 0 0 2 2h28a2 2 0 0 0 2-2v-4a2 2 0 0 0-2-2zm-52 0h-28a2 2 0 0 0-2 2v4a2 2 0 0 0 2 2h28a2 2 0 0 0 2-2v-4a2 2 0 0 0-2-2zm36 12h-12a2 2 0 1 0 0 4h12a2 2 0 1 0 0-4zm-52 0h-12a2 2 0 1 0 0 4h12a2 2 0 1 0 0-4z" fill="#7AC1FC"/><path d="M920 136h96v48h-96z"/><path fill-rule="evenodd" clip-rule="evenodd" d="M920.927 158.887l17.874-21.448a3.998 3.998 0 0 1 3.072-1.439h52.254c1.187 0 2.312.527 3.072 1.439l17.871 21.448c.6.719.93 1.625.93 2.561V184h-96v-22.552a4 4 0 0 1 .927-2.561z" fill="#6796F4"/><path fill-rule="evenodd" clip-rule="evenodd" d="M920.92 158.759l16-19.304a4 4 0 0 1 6.16 0l16 19.304c.594.718.92 1.621.92 2.553V184h-40v-22.688c0-.932.326-1.835.92-2.553z" fill="#5063F0"/><path d="M974 164h-4a2 2 0 0 0-2 2v8a2 2 0 0 0 2 2h4a2 2 0 0 0 2-2v-8a2 2 0 0 0-2-2zm16 0h-4a2 2 0 0 0-2 2v8a2 2 0 0 0 2 2h4a2 2 0 0 0 2-2v-8a2 2 0 0 0-2-2zm16 0h-4c-1.1 0-2 .895-2 2v8c0 1.105.9 2 2 2h4c1.1 0 2-.895 2-2v-8c0-1.105-.9-2-2-2z" fill="#7AC1FC"/><path fill-rule="evenodd" clip-rule="evenodd" d="M936 168h8a2 2 0 0 1 2 2v14h-12v-14a2 2 0 0 1 2-2z" fill="#3C4ACE"/><path d="M644 40h88v144h-88z"/><path fill-rule="evenodd" clip-rule="evenodd" d="M648 40h80a4 4 0 0 1 4 4v140h-88V44a4 4 0 0 1 4-4z" fill="#6796F4"/><path d="M696 88h-8a4 4 0 0 0 0 8h8a4 4 0 0 0 0-8zm0-32h-8a4 4 0 0 0 0 8h8a4 4 0 0 0 0-8zm0 48h-8a4 4 0 0 0 0 8h8a4 4 0 0 0 0-8zm0-32h-8a4 4 0 0 0 0 8h8a4 4 0 0 0 0-8zm0 64h-8a4 4 0 0 0 0 8h8a4 4 0 0 0 0-8zm0-16h-8a4 4 0 0 0 0 8h8a4 4 0 0 0 0-8zm0 32h-8a4 4 0 0 0 0 8h8a4 4 0 0 0 0-8z" fill="#7AC1FC"/><path fill-rule="evenodd" clip-rule="evenodd" d="M648 40h24a4 4 0 0 1 4 4v140h-32V44a4 4 0 0 1 4-4z" fill="#5063F0"/><path d="M668 92a4 4 0 1 0-8 0 4 4 0 0 0 8 0zm0-32a4 4 0 1 0-8 0 4 4 0 0 0 8 0zm0 48a4 4 0 1 0-8 0 4 4 0 0 0 8 0zm0-32a4 4 0 1 0-8 0 4 4 0 0 0 8 0zm0 48a4 4 0 1 0-8 0 4 4 0 0 0 8 0zm0 16a4 4 0 1 0-8 0 4 4 0 0 0 8 0zm0 16a4 4 0 1 0-8 0 4 4 0 0 0 8 0z" fill="#3C4ACE"/><path d="M538 88h256v96H538z"/><path fill-rule="evenodd" clip-rule="evenodd" d="M786 104h4a4 4 0 0 1 4 4v48a4 4 0 0 1-4 4h-4v-56zm-24-16h20a4 4 0 0 1 4 4v92h-24V88z" fill="#9B3E3E"/><path d="M578 160h-8v24h8v-24z" fill="#9B3E3E"/><path fill-rule="evenodd" clip-rule="evenodd" d="M558 88h216a4 4 0 0 1 4 4v92h-16v-76a4 4 0 0 0-4-4H574a4 4 0 0 0-4 4v76h-16V92a4 4 0 0 1 4-4z" fill="#C66767"/><path d="M762 108h-16v48h16v-48z" fill="#9B3E3E"/><path fill-rule="evenodd" clip-rule="evenodd" d="M542 108h208a4 4 0 0 1 4 4v40a4 4 0 0 1-4 4H542v-48z" fill="#F9A5B1"/><path fill-rule="evenodd" clip-rule="evenodd" d="M540 104h220a2 2 0 0 1 2 2v2H540a2 2 0 1 1 0-4zm0 52h222v4H540a2 2 0 1 1 0-4z" fill="#9B3E3E"/><path d="M554 108h-4v48h4v-48zm12 0h-4v48h4v-48zm12 0h-4v48h4v-48zm12 0h-4v48h4v-48zm12 0h-4v48h4v-48zm12 0h-4v48h4v-48zm12 0h-4v48h4v-48zm12 0h-4v48h4v-48zm12 0h-4v48h4v-48zm12 0h-4v48h4v-48zm12 0h-4v48h4v-48zm12 0h-4v48h4v-48zm12 0h-4v48h4v-48zm12 0h-4v48h4v-48zm12 0h-4v48h4v-48zm12 0h-4v48h4v-48zm12 0h-4v48h4v-48z" fill="#E0868B"/><path d="M754 130H542v4h212v-4z" fill="#E0868B"/><path d="M706 160h40v24h-40z"/><path fill-rule="evenodd" clip-rule="evenodd" d="M730 160h16l-24 24h-16l24-24z" fill="#9B3E3E"/><path fill-rule="evenodd" clip-rule="evenodd" d="M730 160h8l-24 24h-8l24-24z" fill="#C66767"/><path fill-rule="evenodd" clip-rule="evenodd" d="M708 176h6v8h-8v-6a2 2 0 0 1 2-2zm8-8h6v8h-8v-6a2 2 0 0 1 2-2zm8-8h6v8h-8v-6a2 2 0 0 1 2-2z" fill="#C66767"/><path d="M224 16h56v168h-56z"/><path fill-rule="evenodd" clip-rule="evenodd" d="M232 24h8v160h-16V32a8 8 0 0 1 8-8z" fill="#3C4ACE"/><path fill-rule="evenodd" clip-rule="evenodd" d="M234 68h6v12h-6a2 2 0 0 1-2-2v-8a2 2 0 0 1 2-2zm0-20h6v12h-6a2 2 0 0 1-2-2v-8a2 2 0 0 1 2-2zm0 40h6v12h-6a2 2 0 0 1-2-2v-8a2 2 0 0 1 2-2zm0 20h6v12h-6a2 2 0 0 1-2-2v-8a2 2 0 0 1 2-2zm0 20h6v12h-6a2 2 0 0 1-2-2v-8a2 2 0 0 1 2-2zm0 20h6v12h-6a2 2 0 0 1-2-2v-8a2 2 0 0 1 2-2z" fill="#2236AF"/><path fill-rule="evenodd" clip-rule="evenodd" d="M248 16h24a8 8 0 0 1 8 8v160h-40V24a8 8 0 0 1 8-8z" fill="#5063F0"/><path fill-rule="evenodd" clip-rule="evenodd" d="M272 16a8 8 0 0 1 8 8v160h-16V24a8 8 0 0 1 8-8z" fill="#6796F4"/><path d="M258 25a1 1 0 0 0-2 0v6a1 1 0 0 0 2 0v-6zm-4 0a1 1 0 0 0-2 0v6a1 1 0 0 0 2 0v-6zm-4 0a1 1 0 0 0-2 0v6a1 1 0 0 0 2 0v-6z" fill="#3C4ACE"/><path fill-rule="evenodd" clip-rule="evenodd" d="M250 68h14v12h-14a2 2 0 0 1-2-2v-8a2 2 0 0 1 2-2zm0-20h14v12h-14a2 2 0 0 1-2-2v-8a2 2 0 0 1 2-2z" fill="#3C4ACE"/><path fill-rule="evenodd" clip-rule="evenodd" d="M264 68h6a2 2 0 0 1 2 2v8a2 2 0 0 1-2 2h-6V68zm0-20h6a2 2 0 0 1 2 2v8a2 2 0 0 1-2 2h-6V48zm0 40h6a2 2 0 0 1 2 2v8a2 2 0 0 1-2 2h-6V88zm0 20h6a2 2 0 0 1 2 2v8a2 2 0 0 1-2 2h-6v-12zm0 20h6a2 2 0 0 1 2 2v8a2 2 0 0 1-2 2h-6v-12zm0 20h6a2 2 0 0 1 2 2v8a2 2 0 0 1-2 2h-6v-12z" fill="#7AC1FC"/><path fill-rule="evenodd" clip-rule="evenodd" d="M250 88h14v12h-14a2 2 0 0 1-2-2v-8a2 2 0 0 1 2-2zm0 40h14v12h-14a2 2 0 0 1-2-2v-8a2 2 0 0 1 2-2zm0-20h14v12h-14a2 2 0 0 1-2-2v-8a2 2 0 0 1 2-2zm0 40h14v12h-14a2 2 0 0 1-2-2v-8a2 2 0 0 1 2-2z" fill="#3C4ACE"/><path d="M384 86h72v98h-72z"/><path fill-rule="evenodd" clip-rule="evenodd" d="M388 102h64a4 4 0 0 1 4 4v78h-72v-78a4 4 0 0 1 4-4zm8-16h22.789a4 4 0 0 1 2.219.672L444 102h-52V90a4 4 0 0 1 4-4z" fill="#EDA4E7"/><path fill-rule="evenodd" clip-rule="evenodd" d="M388 102a4 4 0 0 0 4-4v-5.107a4 4 0 0 1 5.985-3.473l20 11.428a4 4 0 0 1 2.015 3.473V184h-36v-78a4 4 0 0 1 4-4z" fill="#C66DC4"/><path d="M398 118h-4a2 2 0 0 0-2 2v4a2 2 0 0 0 2 2h4a2 2 0 0 0 2-2v-4a2 2 0 0 0-2-2zm0 16h-4a2 2 0 0 0-2 2v4a2 2 0 0 0 2 2h4a2 2 0 0 0 2-2v-4a2 2 0 0 0-2-2zm0 16h-4a2 2 0 0 0-2 2v4a2 2 0 0 0 2 2h4a2 2 0 0 0 2-2v-4a2 2 0 0 0-2-2z" fill="#AD4EAD"/><path d="M446 118h-16a2 2 0 0 0-2 2v4a2 2 0 0 0 2 2h16a2 2 0 0 0 2-2v-4a2 2 0 0 0-2-2zm0 16h-16a2 2 0 0 0-2 2v4a2 2 0 0 0 2 2h16a2 2 0 0 0 2-2v-4a2 2 0 0 0-2-2zm0 16h-16a2 2 0 0 0-2 2v4a2 2 0 0 0 2 2h16a2 2 0 0 0 2-2v-4a2 2 0 0 0-2-2z" fill="#FFCAFE"/><path d="M410 118h-4a2 2 0 0 0-2 2v4a2 2 0 0 0 2 2h4a2 2 0 0 0 2-2v-4a2 2 0 0 0-2-2zm0 16h-4a2 2 0 0 0-2 2v4a2 2 0 0 0 2 2h4a2 2 0 0 0 2-2v-4a2 2 0 0 0-2-2zm0 16h-4a2 2 0 0 0-2 2v4a2 2 0 0 0 2 2h4a2 2 0 0 0 2-2v-4a2 2 0 0 0-2-2z" fill="#AD4EAD"/><path d="M288 20h152v164H288z"/><path fill-rule="evenodd" clip-rule="evenodd" d="M332 168h64a4 4 0 0 1 4 4v12h-72v-12a4 4 0 0 1 4-4z" fill="#417F75"/><path fill-rule="evenodd" clip-rule="evenodd" d="M336 160h56a4 4 0 0 1 4 4v4h-64v-4a4 4 0 0 1 4-4z" fill="#55A595"/><path fill-rule="evenodd" clip-rule="evenodd" d="M364 20c6.627 0 12 5.373 12 12v28h-24V32c0-6.627 5.373-12 12-12z" fill="#417F75"/><path fill-rule="evenodd" clip-rule="evenodd" d="M344 72h40v88h-40V72z" fill="#E9E7E6"/><path fill-rule="evenodd" clip-rule="evenodd" d="M374 72h4v88h-4V72zm-12 0h4v88h-4V72zm-12 0h4v88h-4V72z" fill="#D9D6D3"/><path fill-rule="evenodd" clip-rule="evenodd" d="M290.795 52h146.411a2.794 2.794 0 0 1 2.521 4 7.036 7.036 0 0 1-6.347 4H294.621a7.035 7.035 0 0 1-6.347-4 2.794 2.794 0 0 1 2.521-4z" fill="#E9E7E6"/><path fill-rule="evenodd" clip-rule="evenodd" d="M426.295 52L411.19 74.247A4 4 0 0 1 407.881 76H392a4 4 0 0 0-4 4v62.45a4 4 0 0 1-5.265 3.795l-40-13.333a4.001 4.001 0 0 1-2.735-3.795V80a4 4 0 0 0-4-4h-15.859a3.998 3.998 0 0 1-3.328-1.781L302 52h124.295z" fill="#FFDA95"/><path fill-rule="evenodd" clip-rule="evenodd" d="M376 52h4v74a2 2 0 1 1-4 0V52zm12 0h2v19a1 1 0 0 1-2 0V52zm-24 13.967V70c-9.941 0-18-8.059-18-18h4.033c.493 7.487 6.479 13.474 13.967 13.967zM336 52c0 15.464 12.536 28 28 28v2c-16.569 0-30-13.431-30-30h2z" fill="#FFC875"/><path fill-rule="evenodd" clip-rule="evenodd" d="M356 52h16a8 8 0 0 1-16 0z" fill="#D9D6D3"/><path fill-rule="evenodd" clip-rule="evenodd" d="M360 40h8v12a4 4 0 0 1-8 0V40z" fill="#D9D6D3"/><path d="M372 32a8 8 0 0 0-16 0v8a8 8 0 0 0 16 0v-8z" fill="#D9D6D3"/><path d="M372 32a8 8 0 0 0-16 0v6a8 8 0 0 0 16 0v-6z" fill="#E9E7E6"/><path d="M256 126h80v58h-80z"/><path d="M256 126h80v58h-80z"/><path fill-rule="evenodd" clip-rule="evenodd" d="M256.927 148.887l17.874-21.448a3.998 3.998 0 0 1 3.072-1.439h36.253c1.188 0 2.313.527 3.073 1.439l17.874 21.448a4 4 0 0 1 .927 2.561V184h-80v-32.552a4 4 0 0 1 .927-2.561z" fill="#72CCAE"/><path fill-rule="evenodd" clip-rule="evenodd" d="M256.922 148.728l16-19.277a4 4 0 0 1 6.156 0l16 19.277a4 4 0 0 1 .922 2.555V184h-40v-32.717a4 4 0 0 1 .922-2.555z" fill="#55A595"/><path d="M322 156h-12a2 2 0 0 0-2 2v12a2 2 0 0 0 2 2h12a2 2 0 0 0 2-2v-12a2 2 0 0 0-2-2z" fill="#98EDCC"/><path fill-rule="evenodd" clip-rule="evenodd" d="M272 168h8a2 2 0 0 1 2 2v14h-12v-14a2 2 0 0 1 2-2z" fill="#417F75"/><path fill-rule="evenodd" clip-rule="evenodd" d="M328 126h4a4 4 0 0 1 4 4v52a2 2 0 0 1-2 2h-8a2 2 0 0 1-2-2v-52a4 4 0 0 1 4-4z" fill="#72CCAE"/><path d="M152 40.195h72V184h-72z"/><path fill-rule="evenodd" clip-rule="evenodd" d="M155.132 47.304l31.133-6.918a7.996 7.996 0 0 1 3.47 0l31.133 6.918A4 4 0 0 1 224 51.21V184h-72V51.209a4 4 0 0 1 3.132-3.905z" fill="#EDA4E7"/><path d="M202 88h-4a2 2 0 0 0-2 2v4a2 2 0 0 0 2 2h4a2 2 0 0 0 2-2v-4a2 2 0 0 0-2-2zm0-32h-4a2 2 0 0 0-2 2v4a2 2 0 0 0 2 2h4a2 2 0 0 0 2-2v-4a2 2 0 0 0-2-2zm0 48h-4a2 2 0 0 0-2 2v4a2 2 0 0 0 2 2h4a2 2 0 0 0 2-2v-4a2 2 0 0 0-2-2zm0-32h-4a2 2 0 0 0-2 2v4a2 2 0 0 0 2 2h4a2 2 0 0 0 2-2v-4a2 2 0 0 0-2-2zm0 64h-4a2 2 0 0 0-2 2v4a2 2 0 0 0 2 2h4a2 2 0 0 0 2-2v-4a2 2 0 0 0-2-2zm0-16h-4a2 2 0 0 0-2 2v4a2 2 0 0 0 2 2h4a2 2 0 0 0 2-2v-4a2 2 0 0 0-2-2zm0 32h-4a2 2 0 0 0-2 2v4a2 2 0 0 0 2 2h4a2 2 0 0 0 2-2v-4a2 2 0 0 0-2-2zm12-64h-4a2 2 0 0 0-2 2v4a2 2 0 0 0 2 2h4a2 2 0 0 0 2-2v-4a2 2 0 0 0-2-2zm0-32h-4a2 2 0 0 0-2 2v4a2 2 0 0 0 2 2h4a2 2 0 0 0 2-2v-4a2 2 0 0 0-2-2zm0 48h-4a2 2 0 0 0-2 2v4a2 2 0 0 0 2 2h4a2 2 0 0 0 2-2v-4a2 2 0 0 0-2-2zm0-32h-4a2 2 0 0 0-2 2v4a2 2 0 0 0 2 2h4a2 2 0 0 0 2-2v-4a2 2 0 0 0-2-2zm0 64h-4a2 2 0 0 0-2 2v4a2 2 0 0 0 2 2h4a2 2 0 0 0 2-2v-4a2 2 0 0 0-2-2zm0-16h-4a2 2 0 0 0-2 2v4a2 2 0 0 0 2 2h4a2 2 0 0 0 2-2v-4a2 2 0 0 0-2-2zm0 32h-4a2 2 0 0 0-2 2v4a2 2 0 0 0 2 2h4a2 2 0 0 0 2-2v-4a2 2 0 0 0-2-2z" fill="#FFCAFE"/><path fill-rule="evenodd" clip-rule="evenodd" d="M155.132 47.304l28-6.222A4 4 0 0 1 188 44.987V184h-36V51.209a4 4 0 0 1 3.132-3.905z" fill="#C66DC4"/><path d="M178 88h-16a2 2 0 0 0-2 2v4a2 2 0 0 0 2 2h16a2 2 0 0 0 2-2v-4a2 2 0 0 0-2-2zm0-32h-16a2 2 0 0 0-2 2v4a2 2 0 0 0 2 2h16a2 2 0 0 0 2-2v-4a2 2 0 0 0-2-2zm0 48h-16a2 2 0 0 0-2 2v4a2 2 0 0 0 2 2h16a2 2 0 0 0 2-2v-4a2 2 0 0 0-2-2zm0-32h-16a2 2 0 0 0-2 2v4a2 2 0 0 0 2 2h16a2 2 0 0 0 2-2v-4a2 2 0 0 0-2-2zm0 48h-16a2 2 0 0 0-2 2v4a2 2 0 0 0 2 2h16a2 2 0 0 0 2-2v-4a2 2 0 0 0-2-2zm0 16h-16a2 2 0 0 0-2 2v4a2 2 0 0 0 2 2h16a2 2 0 0 0 2-2v-4a2 2 0 0 0-2-2zm0 16h-16a2 2 0 0 0-2 2v4a2 2 0 0 0 2 2h16a2 2 0 0 0 2-2v-4a2 2 0 0 0-2-2z" fill="#AD4EAD"/><path d="M64 64h72v120H64z"/><path fill-rule="evenodd" clip-rule="evenodd" d="M68 76h64a4 4 0 0 1 4 4v104H64V80a4 4 0 0 1 4-4zm8-12h48a4 4 0 0 1 4 4v8H72v-8a4 4 0 0 1 4-4z" fill="#55A595"/><path fill-rule="evenodd" clip-rule="evenodd" d="M100 76h32a4 4 0 0 1 4 4v104h-36V76zm4-12h20a4 4 0 0 1 4 4v8h-28v-8a4 4 0 0 1 4-4z" fill="#72CCAE"/><path d="M78 88h-4a2 2 0 0 0-2 2v4a2 2 0 0 0 2 2h4a2 2 0 0 0 2-2v-4a2 2 0 0 0-2-2zm14-19a1 1 0 1 0-2 0v6a1 1 0 1 0 2 0v-6z" fill="#417F75"/><path d="M122 69a1 1 0 0 0-2 0v6a1 1 0 0 0 2 0v-6z" fill="#98EDCC"/><path d="M86 69a1 1 0 1 0-2 0v6a1 1 0 1 0 2 0v-6z" fill="#417F75"/><path d="M116 69a1 1 0 0 0-2 0v6a1 1 0 0 0 2 0v-6z" fill="#98EDCC"/><path d="M80 69a1 1 0 1 0-2 0v6a1 1 0 1 0 2 0v-6z" fill="#417F75"/><path d="M110 69a1 1 0 0 0-2 0v6a1 1 0 0 0 2 0v-6z" fill="#98EDCC"/><path d="M78 104h-4a2 2 0 0 0-2 2v4a2 2 0 0 0 2 2h4a2 2 0 0 0 2-2v-4a2 2 0 0 0-2-2zm0 16h-4a2 2 0 0 0-2 2v4a2 2 0 0 0 2 2h4a2 2 0 0 0 2-2v-4a2 2 0 0 0-2-2zm0 32h-4a2 2 0 0 0-2 2v4a2 2 0 0 0 2 2h4a2 2 0 0 0 2-2v-4a2 2 0 0 0-2-2zm12 0h-4a2 2 0 0 0-2 2v4a2 2 0 0 0 2 2h4a2 2 0 0 0 2-2v-4a2 2 0 0 0-2-2zm-12-16h-4a2 2 0 0 0-2 2v4a2 2 0 0 0 2 2h4a2 2 0 0 0 2-2v-4a2 2 0 0 0-2-2zm12-48h-4a2 2 0 0 0-2 2v4a2 2 0 0 0 2 2h4a2 2 0 0 0 2-2v-4a2 2 0 0 0-2-2z" fill="#417F75"/><path d="M126 88h-16a2 2 0 0 0-2 2v4a2 2 0 0 0 2 2h16a2 2 0 0 0 2-2v-4a2 2 0 0 0-2-2zm0 16h-16a2 2 0 0 0-2 2v4a2 2 0 0 0 2 2h16a2 2 0 0 0 2-2v-4a2 2 0 0 0-2-2zm0 16h-16a2 2 0 0 0-2 2v4a2 2 0 0 0 2 2h16a2 2 0 0 0 2-2v-4a2 2 0 0 0-2-2zm0 16h-16a2 2 0 0 0-2 2v4a2 2 0 0 0 2 2h16a2 2 0 0 0 2-2v-4a2 2 0 0 0-2-2zm0 16h-16a2 2 0 0 0-2 2v4a2 2 0 0 0 2 2h16a2 2 0 0 0 2-2v-4a2 2 0 0 0-2-2z" fill="#98EDCC"/><path d="M90 104h-4a2 2 0 0 0-2 2v4a2 2 0 0 0 2 2h4a2 2 0 0 0 2-2v-4a2 2 0 0 0-2-2zm0 16h-4a2 2 0 0 0-2 2v4a2 2 0 0 0 2 2h4a2 2 0 0 0 2-2v-4a2 2 0 0 0-2-2zm0 16h-4a2 2 0 0 0-2 2v4a2 2 0 0 0 2 2h4a2 2 0 0 0 2-2v-4a2 2 0 0 0-2-2z" fill="#417F75"/><path d="M112 118h64v66h-64z"/><path fill-rule="evenodd" clip-rule="evenodd" d="M112.927 140.887l17.874-21.448a3.998 3.998 0 0 1 3.072-1.439h20.253c1.188 0 2.313.527 3.073 1.439l17.874 21.448a4 4 0 0 1 .927 2.561V184h-64v-40.552a4 4 0 0 1 .927-2.561z" fill="#5063F0"/><path fill-rule="evenodd" clip-rule="evenodd" d="M136.927 140.887l16-19.2a4 4 0 0 1 6.146 0l16 19.2a4 4 0 0 1 .927 2.561V184h-40v-40.552a4 4 0 0 1 .927-2.561z" fill="#6796F4"/><path d="M128 166h-8a2 2 0 0 0-2 2v8a2 2 0 0 0 2 2h8a2 2 0 0 0 2-2v-8a2 2 0 0 0-2-2zm0-20h-8a2 2 0 0 0-2 2v8a2 2 0 0 0 2 2h8a2 2 0 0 0 2-2v-8a2 2 0 0 0-2-2z" fill="#3C4ACE"/><path fill-rule="evenodd" clip-rule="evenodd" d="M152 168h8a2 2 0 0 1 2 2v14h-12v-14a2 2 0 0 1 2-2z" fill="#7AC1FC"/><path d="M40 112h48v70.465H40z"/><path fill-rule="evenodd" clip-rule="evenodd" d="M65.653 181.591C80.55 159.724 88 144.527 88 136c0-13.255-10.745-24-24-24s-24 10.745-24 24c0 8.527 7.449 23.724 22.347 45.591a2 2 0 0 0 3.306 0z" fill="#AD4EAD"/><path d="M64 144a8 8 0 1 0 0-16 8 8 0 0 0 0 16z" fill="#EDA4E7"/><path d="M0 140h64v44H0z"/><path fill-rule="evenodd" clip-rule="evenodd" d="M.927 162.887l17.874-21.448A4 4 0 0 1 21.874 140h20.253a4 4 0 0 1 3.072 1.439l17.874 21.448a4 4 0 0 1 .927 2.561V184H0v-18.552a4 4 0 0 1 .927-2.561z" fill="#5063F0"/><path fill-rule="evenodd" clip-rule="evenodd" d="M24.927 162.887l16-19.2a4 4 0 0 1 6.146 0l16 19.2a4 4 0 0 1 .927 2.561V184H24v-18.552a4 4 0 0 1 .927-2.561z" fill="#6796F4"/><path d="M14 168h-4a2 2 0 0 0-2 2v4a2 2 0 0 0 2 2h4a2 2 0 0 0 2-2v-4a2 2 0 0 0-2-2z" fill="#3C4ACE"/><path fill-rule="evenodd" clip-rule="evenodd" d="M40 168h8a2 2 0 0 1 2 2v14H38v-14a2 2 0 0 1 2-2z" fill="#7AC1FC"/><path d="M202 112h48v72h-48z"/><path fill-rule="evenodd" clip-rule="evenodd" d="M226 172c13.255 0 24-7.675 24-17.143S239.255 112 226 112s-24 33.389-24 42.857c0 9.468 10.745 17.143 24 17.143z" fill="#72CCAE"/><path fill-rule="evenodd" clip-rule="evenodd" d="M226 169c8.837 0 16-7.163 16-16s-7.163-16-16-16-16 7.163-16 16 7.163 16 16 16z" fill="#98EDCC"/><path fill-rule="evenodd" clip-rule="evenodd" d="M226 146a2 2 0 0 1 2 2v36h-4v-36a2 2 0 0 1 2-2z" fill="#417F75"/><path fill-rule="evenodd" clip-rule="evenodd" d="M215.414 157.414a2 2 0 0 1 2.829 0l9.899 9.9-2.828 2.828-9.9-9.899a2 2 0 0 1 0-2.829zm21.314-8a2 2 0 0 1 0 2.829l-9.9 9.899-2.828-2.828 9.899-9.9a2 2 0 0 1 2.829 0z" fill="#417F75"/><path d="M396 152h96v32h-96z"/><path fill-rule="evenodd" clip-rule="evenodd" d="M460 184c0-17.673-14.327-32-32-32-17.673 0-32 14.327-32 32h64z" fill="#55A595"/><path fill-rule="evenodd" clip-rule="evenodd" d="M452 184c0-11.046-8.954-20-20-20s-20 8.954-20 20h40z" fill="#417F75"/><path fill-rule="evenodd" clip-rule="evenodd" d="M492 184c0-17.673-14.327-32-32-32-17.673 0-32 14.327-32 32h64z" fill="#72CCAE"/><path fill-rule="evenodd" clip-rule="evenodd" d="M468 184c0-8.837-7.163-16-16-16s-16 7.163-16 16h32z" fill="#98EDCC"/><path fill-rule="evenodd" clip-rule="evenodd" d="M484 184c0-6.627-5.373-12-12-12s-12 5.373-12 12h24z" fill="#98EDCC"/><path d="M811 117.75h54v66h-54z"/><path fill-rule="evenodd" clip-rule="evenodd" d="M838 171.75c14.912 0 27-12.088 27-27s-12.088-27-27-27-27 12.088-27 27 12.088 27 27 27z" fill="#72CCAE"/><path fill-rule="evenodd" clip-rule="evenodd" d="M838 168.75c8.837 0 16-7.163 16-16s-7.163-16-16-16-16 7.163-16 16 7.163 16 16 16z" fill="#98EDCC"/><path fill-rule="evenodd" clip-rule="evenodd" d="M838 145.75a2 2 0 0 1 2 2v36h-4v-36a2 2 0 0 1 2-2z" fill="#417F75"/><path fill-rule="evenodd" clip-rule="evenodd" d="M827.414 149.164a2 2 0 0 1 2.829 0l9.899 9.9-2.828 2.828-9.9-9.899a2 2 0 0 1 0-2.829zm21.314 8a2 2 0 0 1 0 2.829l-9.9 9.899-2.828-2.828 9.899-9.9a2 2 0 0 1 2.829 0z" fill="#417F75"/><path d="M934 64h24v24h-24z"/><path d="M937 85a2 2 0 0 0 2-2v-8a2 2 0 1 0-4 0v8a2 2 0 0 0 2 2zm20-11c0-1.1-.9-2-2-2h-3.851a2 2 0 0 1-1.959-2.407l.45-2.163.03-.32c0-.41-.17-.79-.44-1.06a1.498 1.498 0 0 0-2.114.006l-5.526 5.534c-.37.36-.59.86-.59 1.41v10c0 1.1.9 2 2 2h9c.83 0 1.54-.5 1.84-1.22l3.02-7.05c.09-.23.14-.47.14-.73v-2z" fill="#5063F0"/><path d="M660 8h24v24h-24z"/><path d="M671.99 10c5.53 0 10.01 4.48 10.01 10s-4.48 10-10.01 10c-5.52 0-9.99-4.48-9.99-10s4.47-10 9.99-10zm.01 16a5 5 0 0 0 5-5h-10a5 5 0 0 0 5 5zm3.5-8c.83 0 1.5-.67 1.5-1.5s-.67-1.5-1.5-1.5-1.5.67-1.5 1.5.67 1.5 1.5 1.5zm-7 0c.83 0 1.5-.67 1.5-1.5s-.67-1.5-1.5-1.5-1.5.67-1.5 1.5.67 1.5 1.5 1.5z" fill="#F8D48B"/><path d="M288 90h28v28h-28z"/><path d="M302.239 101.667c-.932-2.719-3.455-4.667-6.421-4.667-3.761 0-6.818 3.138-6.818 7s3.057 7 6.818 7c2.966 0 5.489-1.948 6.421-4.667h1.473a2.333 2.333 0 0 1 2.333 2.334v.06a2.273 2.273 0 0 0 4.546 0v-.689c0-.942.763-1.705 1.704-1.705.942 0 1.705-.763 1.705-1.704V104a2.333 2.333 0 0 0-2.333-2.333h-9.428zm-6.421 4.666c-1.25 0-2.273-1.05-2.273-2.333 0-1.283 1.023-2.333 2.273-2.333 1.25 0 2.273 1.05 2.273 2.333 0 1.283-1.023 2.333-2.273 2.333z" fill="#EDA4E7"/><path d="M88 32h24v24H88z"/><path d="M98.555 52.035l-.005-.005C93.4 47.36 90 44.28 90 40.5c0-3.08 2.42-5.5 5.5-5.5 1.74 0 3.41.81 4.5 2.09 1.09-1.28 2.76-2.09 4.5-2.09 3.08 0 5.5 2.42 5.5 5.5 0 3.78-3.4 6.86-8.55 11.54a2.155 2.155 0 0 1-2.895-.005z" fill="#E0868B"/></svg>